<svg xmlns="http://www.w3.org/2000/svg" width="2048" height="2048"><polygon stroke="#dadbc1" stroke-width="1" class="perimeter" points="2048.0 2047.9999999809265 2.384185791015625e-09 2048.0 2.2204439316472656e-20 0.0 2047.9999999988079 0.0 2048.0 1023.9023552874985 2048.0 2047.9999999809265" fill="#091833"/><polygon stroke="#2F3737" stroke-width="1" class="green" points="2048.0 1972.2309113127994 2047.4576359260084 1972.2132231521607 2048.0 1964.7816274325655 2048.0 1972.2309113127994" fill="#089a00"/><polygon stroke="#2F3737" stroke-width="0.1" class="parking" points="489.94209485840446 0.0 478.45922035455703 93.74230621337892 321.0911458861828 1373.80103559494 303.0604715383053 1402.748805065155 245.24782212972642 1379.744877243042 99.28878323399398 2048.0 91.78490534799184 2048.0 0.0 2029.6937947132449 0.0 1927.5609026061745 26.835807279348373 1804.4030925559998 249.59867837786675 569.4675762939453 279.870299834013 381.24460380554206 351.29570484757426 44.45265890121459 360.3191308450394 0.0 489.94209485840446 0.0" fill="#ea00d9"/><polygon stroke="#2F3737" stroke-width="0.1" class="parking" points="1801.34194843312 0.0 1764.9331233131886 285.5064900398254 1898.0427861249448 406.6918637275696 1998.4573347270489 596.0330839729309 2013.3981712162495 807.15184343338 2012.0839946174622 940.601473121643 1942.211680470705 934.7744672584533 1912.5695545446872 1251.4620395088195 1980.6845481967925 1260.9117985343933 1961.5524234807492 1378.2937400627136 1895.8594192481041 1570.0791177940368 1826.3161417424678 1667.0220202064515 1759.7255619800092 1741.7087824821472 1686.7308586513996 1777.9167249298096 1579.0611387825013 1831.1073622894287 1571.4814878723305 2048.0 339.8229532703064 2048.0 433.83807132840155 1836.5368225860595 545.1703515779972 1416.1903902435301 554.002607959509 1332.3698269081115 596.9767353892327 910.7558603286743 706.4568362890922 0.0 1801.34194843312 0.0" fill="#ea00d9"/><polygon stroke="#f7f132" stroke-width="0" class="railway" points="1158.252280860238 0.0 908.53134121418 962.9270904922485 868.8829203140735 952.6448572731017 908.5311838626861 962.9276972389221 627.1159633056586 2048.0 542.4856945439783 2048.0 829.2344994139671 942.362624053955 829.234656765461 942.3620173072816 1073.622347974619 0.0 1158.252280860238 0.0" fill="#f7f132"/><polygon stroke="#f7f132" stroke-width="0" class="railway" points="1391.368173575187 0.0 1126.6103676772118 1020.4963820266723 1126.6097244381906 1020.4988626480103 1126.6090755295754 1020.5013638305663 860.1723953382086 2048.0 775.5430617181133 2048.0 1047.31296448946 999.9340803909301 1086.9616660833358 1010.2152312088012 1047.3142566370964 999.9290985870362 1306.7360816888101 0.0 1391.368173575187 0.0" fill="#f7f132"/><polygon stroke="#2F3737" stroke-width="0.1" class="building" points="958.9500141620637 475.0484574699401 923.8028866052628 527.0405827331542 760.8956996309757 417.87669858932486 742.1847166800499 627.1159531211854 679.733914397955 621.5792671394347 708.1545296621323 306.7003004264832 958.9500141620637 475.0484574699401" fill="#FF5E5B"/><polygon stroke="#2F3737" stroke-width="0.1" class="building" points="875.3881026446819 1039.7798035049439 888.2801290428639 885.0573567962647 1044.760483725071 897.9923828506469 1032.043197940588 1052.4889744949342 875.3881026446819 1039.7798035049439" fill="#2900c1"/><polygon stroke="#2F3737" stroke-width="0.1" class="building" points="618.6926868987083 1257.8946714401245 687.7019366157054 1263.7148964309692 669.1147488212586 1478.6392165374755 874.1553213524819 1405.5930449295042 897.2555258190632 1470.1339671707153 591.0823761081696 1578.9192904281617 618.6926868987083 1257.8946714401245" fill="#2900c1"/><polygon stroke="#2F3737" stroke-width="0.1" class="building" points="0.0 0.0 360.3191308450394 0.0 351.29570484757426 44.45265890121459 279.870299834013 381.24460380554206 249.59867837786675 569.4675762939453 26.835807279348373 1804.4030925559998 0.0 1927.5609026061745 0.0 183.9527872700835 4.977799018621445 184.26872871398928 28.269591389894487 24.86084602355959 0.0 22.72414976693335 0.0 0.0" fill="#2900c1"/><polygon stroke="#2F3737" stroke-width="0.1" class="building" points="2048.0 2048.0 1992.308056043492 2048.0 1988.9185231804847 1973.531377067566 1886.970470391512 1963.3374790191651 1883.8224759043053 2048.0 1571.4814878723305 2048.0 1579.0611387825013 1831.1073622894287 1686.7308586513996 1777.9167249298096 1759.7255619800092 1741.7087824821472 1826.3161417424678 1667.0220202064515 1895.8594192481041 1570.0791177940368 1961.5524234807492 1378.2937400627136 1980.6845481967925 1260.9117985343933 1912.5695545446872 1251.4620395088195 1942.211680470705 934.7744672584533 2012.0839946174622 940.601473121643 2013.3981712162495 807.15184343338 1998.4573347270489 596.0330839729309 1898.0427861249448 406.6918637275696 1764.9331233131886 285.5064900398254 1801.34194843312 0.0 2048.0 0.0 2048.0 1964.7816274325655 2047.4576359260084 1972.2132231521607 2048.0 1972.2309113127994 2048.0 2048.0" fill="#FF5E5B"/></svg>